Coordinates
version=1
nRows=15
nColumns=34
inDegrees=yes

Units are S.I. units (second, meters, Newtons, ...)
If the header above contains a line with 'inDegrees', this indicates whether rotational values are in degrees (yes) or radians (no).

endheader
time	pelvis_tilt	pelvis_list	pelvis_rotation	pelvis_tx	pelvis_ty	pelvis_tz	hip_flexion_r	hip_adduction_r	hip_rotation_r	knee_angle_r	ankle_angle_r	subtalar_angle_r	mtp_angle_r	hip_flexion_l	hip_adduction_l	hip_rotation_l	knee_angle_l	ankle_angle_l	subtalar_angle_l	mtp_angle_l	lumbar_extension	lumbar_bending	lumbar_rotation	arm_flex_r	arm_add_r	arm_rot_r	elbow_flex_r	pro_sup_r	arm_flex_l	arm_add_l	arm_rot_l	elbow_flex_l	pro_sup_l
      0.68333330	    -24.43673925	     -2.23977098	      1.33134437	      0.05296918	      1.37184764	     -0.31599345	     46.50402901	     -2.90642557	     -4.11581645	     47.30213010	     21.95767330	     -9.42939999	      0.00000000	     45.86122205	     -4.59265806	     -4.13406576	     47.77987174	     25.68610319	     -5.29934040	      0.00000000	    -19.60945843	      0.93123013	      0.24844753	     -2.55643750	    -21.40324010	      2.56251712	     53.20398569	     80.08811133	     -7.54874972	    -21.48730094	      0.11100460	     59.80129822	     77.35195520
      0.70000000	    -24.56949394	     -1.99374644	      1.37968020	      0.05654807	      1.36786800	     -0.31353447	     47.69664449	     -3.33436771	     -3.86903916	     49.77299531	     23.42343831	     -9.15988294	      0.00000000	     46.88966598	     -4.27267808	     -3.86455411	     49.86171947	     26.77588696	     -5.77329420	      0.00000000	    -20.23537919	      0.84761215	      0.27521225	      0.08441241	    -21.22928755	      2.96263101	     55.00951456	     80.21572324	     -4.10525986	    -21.59226511	      1.30126247	     61.45019996	     77.66704787
      0.71666670	    -24.69012874	     -1.86200981	      1.32727531	      0.05870055	      1.35620122	     -0.31426725	     49.01819893	     -3.53638192	     -3.53786082	     52.40614739	     24.61677593	     -9.48962237	      0.00000000	     47.96785993	     -4.14242962	     -3.62710148	     52.16621379	     27.89596074	     -6.37852443	      0.00000000	    -20.57058424	      0.84297384	      0.20231604	      2.92641036	    -20.84174410	      3.15796280	     56.40763598	     80.29740551	     -0.69699593	    -21.38448450	      1.83795132	     62.98793341	     77.77975338
      0.73333330	    -25.16929119	     -1.46380773	      1.20520036	      0.06878200	      1.34056111	     -0.31489071	     50.85396209	     -4.00100465	     -3.11534374	     55.43160888	     26.11865577	     -8.97576527	      0.00000000	     49.30887339	     -3.75212144	     -3.48344290	     54.57481498	     29.07119593	     -6.83647143	      0.00000000	    -20.08093452	      0.41446791	      0.30164211	      4.89253082	    -20.77766360	      3.96678245	     59.21989814	     80.61106920	      2.19231500	    -21.80634313	      3.57409972	     65.92183590	     78.06117119
      0.75000000	    -24.85591624	     -1.25817590	      1.19546432	      0.07566539	      1.34054204	     -0.30974357	     51.34845115	     -4.21805511	     -2.76852322	     57.58440410	     27.25580954	     -8.77946208	      0.00000000	     49.41507402	     -3.52833927	     -3.26703883	     56.21775165	     29.86978041	     -7.27249326	      0.00000000	    -20.33359159	      0.21974782	      0.37496639	      7.85800367	    -20.18264369	      4.52354319	     60.96429713	     80.97530754	      6.07526847	    -22.36004975	      5.43510488	     67.00841761	     78.24500173
      0.76666670	    -24.23698552	     -1.33932828	      1.23390834	      0.07844385	      1.34701015	     -0.30922842	     50.99695719	     -4.11361530	     -2.68187839	     58.77567782	     27.74217891	     -8.97283326	      0.00000000	     48.97743722	     -3.53261491	     -2.85903995	     57.30168875	     29.99385128	     -7.80168906	      0.00000000	    -20.94475469	      0.32774055	      0.49746453	     12.08180969	    -19.32307505	      5.09139588	     60.60855939	     81.36972770	     11.35130851	    -22.20157655	      7.61794112	     67.14329457	     78.35532597
      0.78333330	    -24.14379567	     -1.19312007	      0.99102327	      0.09103271	      1.32966647	     -0.30984283	     51.40610750	     -4.09844795	     -2.32739620	     60.64139315	     28.51286929	     -8.84803748	      0.00000000	     49.06342123	     -3.44120534	     -2.67097365	     58.73260188	     30.47720364	     -8.08308109	      0.00000000	    -20.34075882	     -0.06542012	      0.77444561	     15.11434676	    -19.04378134	      6.17554728	     62.35247892	     81.94745793	     15.69337113	    -22.20964688	      9.69018376	     69.51624941	     78.56115302
      0.80000000	    -23.48107251	     -1.07834028	      0.87738734	      0.10524097	      1.32343929	     -0.30996401	     50.93191664	     -4.08078689	     -2.07652068	     62.35429362	     29.07612422	     -9.09009983	      0.00000000	     48.28789971	     -3.24886178	     -2.24571297	     59.91505793	     30.77146326	     -8.67727282	      0.00000000	    -19.91109784	     -0.21005295	      0.84705398	     17.94312441	    -18.89529368	      7.45244810	     65.12610522	     82.66418407	     19.69350694	    -22.34017909	     11.67625949	     71.81758165	     78.85017661
      0.81666670	    -22.31962101	     -1.13889081	      0.78098114	      0.11043421	      1.33630218	     -0.30793734	     49.30138785	     -3.90137685	     -2.04386866	     62.76324537	     28.62927644	     -9.69797728	      0.00000000	     46.34696530	     -3.11073278	     -1.66738193	     59.83217632	     30.44959442	     -8.80301685	      0.00000000	    -20.30066974	     -0.12220647	      1.02766411	     22.17124073	    -18.76044553	      9.05803115	     66.33701946	     83.44100310	     24.91218170	    -22.38084689	     13.94065554	     72.70412731	     79.21546846
      0.83333330	    -21.78177278	     -1.24424056	      0.56400517	      0.11980002	      1.33500954	     -0.30969124	     48.47968855	     -3.65374759	     -2.05320850	     63.32367761	     28.11462949	    -10.49866885	      0.00000000	     45.37094637	     -3.09771630	     -1.11079451	     60.23256436	     30.14955346	     -9.18526454	      0.00000000	    -20.16834936	     -0.02622025	      1.40000279	     26.15898056	    -19.40633766	     11.38953039	     68.13822729	     84.43060713	     29.85711004	    -22.42420356	     16.42129264	     74.29484294	     79.75794090
      0.85000000	    -21.59986786	     -1.16310333	      0.33583360	      0.12866194	      1.32664699	     -0.31149023	     48.15070755	     -3.68220939	     -2.03445087	     64.12339732	     27.69240169	    -11.19423064	      0.00000000	     44.92289921	     -2.82429358	     -0.61285517	     60.82732530	     30.44767584	     -9.53925560	      0.00000000	    -19.10718635	     -0.07043550	      1.51272057	     29.63184799	    -20.53524708	     13.67683535	     71.74909807	     85.43361862	     34.10568388	    -23.18283379	     18.37575814	     76.82721316	     80.44362275
      0.86666670	    -22.10057487	     -0.85355987	     -0.03408196	      0.13124272	      1.30704070	     -0.31007001	     49.24948666	     -3.79358073	     -1.67059733	     66.12703454	     27.95041577	    -11.86210970	      0.00000000	     45.79038738	     -2.58026535	     -0.47087365	     62.56035195	     31.24919778	     -9.83464470	      0.00000000	    -16.84676759	     -0.44423589	      1.65147513	     33.29540384	    -22.24923771	     16.20179270	     76.95828036	     86.57184879	     39.09176256	    -24.69521468	     20.50148311	     80.85399993	     81.50858688
      0.88333330	    -21.96692755	     -0.59495426	     -0.17207248	      0.14107897	      1.31157210	     -0.31176422	     49.07576304	     -3.99938320	     -1.51326378	     66.87553732	     27.58221204	    -12.83617834	      0.00000000	     45.47528726	     -2.09592877	     -0.04821213	     63.26802896	     31.63999126	    -10.66311465	      0.00000000	    -14.93894985	     -0.51784272	      1.92161179	     36.92805124	    -23.96131472	     18.37569994	     80.37155184	     87.50177451	     43.51554462	    -25.07474685	     22.20542287	     83.15287858	     82.68020988
      0.90000000	    -21.82259416	     -0.48239598	     -0.27910312	      0.14661413	      1.31604822	     -0.30867968	     48.63375044	     -4.00207251	     -1.45501991	     67.06010891	     26.64804216	    -13.99679715	      0.00000000	     44.78053301	     -1.78038548	      0.37544963	     63.17044476	     31.70647038	    -11.42821817	      0.00000000	    -13.19570981	     -0.57521962	      2.21587376	     40.67876584	    -25.02134225	     20.22546918	     82.19542193	     88.15678737	     47.74728536	    -25.34879456	     24.13564144	     84.29489853	     83.73529992
      0.91666670	    -21.28323642	     -0.48951593	     -0.25901471	      0.16596131	      1.31637170	     -0.30658219	     46.92983144	     -3.86626262	     -1.46661951	     66.41057260	     25.49200824	    -14.88187853	      0.00000000	     43.22123522	     -1.49950864	      0.85468214	     62.55001731	     30.58828523	    -12.43867610	      0.00000000	    -10.96200851	     -0.56941548	      1.73694163	     42.16605479	    -25.08794936	     21.09458329	     84.38454720	     88.52148282	     50.58857493	    -25.43974505	     24.64442192	     84.47178434	     84.52446619
